# xmcd CD database file
#
# Track frame offsets:
#	150
#	131103
#	185567
#
# Disc length: 2482 seconds
#
# Revision: 0
# Processed by: cddbd v1.4PL0 Copyright (c) Steve Scherf et al.
# Submitted via: CDex 1.50beta10
#
DISCID=2709b003
DTITLE=Soft Works feat. Allan Holdsworth - Progman Cometh Festival - Miller Theatre - Seattle WA, Aug 17 2002 D2
DYEAR=2002
DGENRE=Jazz
TTITLE0=Untitled
TTITLE1=Facelift
TTITLE2=insignificant post concert chatter
EXTD=YEAR: 2002
EXTT0=
EXTT1=
EXTT2=
PLAYORDER=
